<svg width="283" height="44" viewBox="0 0 283 44" fill="none" xmlns="http://www.w3.org/2000/svg">
<path d="M41.5176 25.105C40.8276 25.105 40.2076 24.985 39.6576 24.745C39.1176 24.495 38.6926 24.155 38.3826 23.725C38.0726 23.285 37.9126 22.78 37.9026 22.21H39.3576C39.4076 22.7 39.6076 23.115 39.9576 23.455C40.3176 23.785 40.8376 23.95 41.5176 23.95C42.1676 23.95 42.6776 23.79 43.0476 23.47C43.4276 23.14 43.6176 22.72 43.6176 22.21C43.6176 21.81 43.5076 21.485 43.2876 21.235C43.0676 20.985 42.7926 20.795 42.4626 20.665C42.1326 20.535 41.6876 20.395 41.1276 20.245C40.4376 20.065 39.8826 19.885 39.4626 19.705C39.0526 19.525 38.6976 19.245 38.3976 18.865C38.1076 18.475 37.9626 17.955 37.9626 17.305C37.9626 16.735 38.1076 16.23 38.3976 15.79C38.6876 15.35 39.0926 15.01 39.6126 14.77C40.1426 14.53 40.7476 14.41 41.4276 14.41C42.4076 14.41 43.2076 14.655 43.8276 15.145C44.4576 15.635 44.8126 16.285 44.8926 17.095H43.3926C43.3426 16.695 43.1326 16.345 42.7626 16.045C42.3926 15.735 41.9026 15.58 41.2926 15.58C40.7226 15.58 40.2576 15.73 39.8976 16.03C39.5376 16.32 39.3576 16.73 39.3576 17.26C39.3576 17.64 39.4626 17.95 39.6726 18.19C39.8926 18.43 40.1576 18.615 40.4676 18.745C40.7876 18.865 41.2326 19.005 41.8026 19.165C42.4926 19.355 43.0476 19.545 43.4676 19.735C43.8876 19.915 44.2476 20.2 44.5476 20.59C44.8476 20.97 44.9976 21.49 44.9976 22.15C44.9976 22.66 44.8626 23.14 44.5926 23.59C44.3226 24.04 43.9226 24.405 43.3926 24.685C42.8626 24.965 42.2376 25.105 41.5176 25.105ZM54.2063 20.575C54.2063 20.835 54.1913 21.11 54.1613 21.4H47.5913C47.6413 22.21 47.9163 22.845 48.4163 23.305C48.9263 23.755 49.5413 23.98 50.2613 23.98C50.8513 23.98 51.3413 23.845 51.7313 23.575C52.1313 23.295 52.4113 22.925 52.5713 22.465H54.0413C53.8213 23.255 53.3813 23.9 52.7213 24.4C52.0613 24.89 51.2413 25.135 50.2613 25.135C49.4813 25.135 48.7813 24.96 48.1613 24.61C47.5513 24.26 47.0713 23.765 46.7213 23.125C46.3713 22.475 46.1963 21.725 46.1963 20.875C46.1963 20.025 46.3663 19.28 46.7063 18.64C47.0463 18 47.5213 17.51 48.1313 17.17C48.7513 16.82 49.4613 16.645 50.2613 16.645C51.0413 16.645 51.7313 16.815 52.3313 17.155C52.9313 17.495 53.3913 17.965 53.7113 18.565C54.0413 19.155 54.2063 19.825 54.2063 20.575ZM52.7963 20.29C52.7963 19.77 52.6813 19.325 52.4513 18.955C52.2213 18.575 51.9063 18.29 51.5063 18.1C51.1163 17.9 50.6813 17.8 50.2013 17.8C49.5113 17.8 48.9213 18.02 48.4313 18.46C47.9513 18.9 47.6763 19.51 47.6063 20.29H52.7963ZM55.198 20.86C55.198 20.02 55.368 19.285 55.708 18.655C56.048 18.015 56.513 17.52 57.103 17.17C57.703 16.82 58.368 16.645 59.098 16.645C59.818 16.645 60.443 16.8 60.973 17.11C61.503 17.42 61.898 17.81 62.158 18.28V16.78H63.538V25H62.158V23.47C61.888 23.95 61.483 24.35 60.943 24.67C60.413 24.98 59.793 25.135 59.083 25.135C58.353 25.135 57.693 24.955 57.103 24.595C56.513 24.235 56.048 23.73 55.708 23.08C55.368 22.43 55.198 21.69 55.198 20.86ZM62.158 20.875C62.158 20.255 62.033 19.715 61.783 19.255C61.533 18.795 61.193 18.445 60.763 18.205C60.343 17.955 59.878 17.83 59.368 17.83C58.858 17.83 58.393 17.95 57.973 18.19C57.553 18.43 57.218 18.78 56.968 19.24C56.718 19.7 56.593 20.24 56.593 20.86C56.593 21.49 56.718 22.04 56.968 22.51C57.218 22.97 57.553 23.325 57.973 23.575C58.393 23.815 58.858 23.935 59.368 23.935C59.878 23.935 60.343 23.815 60.763 23.575C61.193 23.325 61.533 22.97 61.783 22.51C62.033 22.04 62.158 21.495 62.158 20.875ZM66.9097 18.115C67.1497 17.645 67.4897 17.28 67.9297 17.02C68.3797 16.76 68.9247 16.63 69.5647 16.63V18.04H69.2047C67.6747 18.04 66.9097 18.87 66.9097 20.53V25H65.5447V16.78H66.9097V18.115ZM70.3305 20.875C70.3305 20.025 70.5005 19.285 70.8405 18.655C71.1805 18.015 71.6505 17.52 72.2505 17.17C72.8605 16.82 73.5555 16.645 74.3355 16.645C75.3455 16.645 76.1755 16.89 76.8255 17.38C77.4855 17.87 77.9205 18.55 78.1305 19.42H76.6605C76.5205 18.92 76.2455 18.525 75.8355 18.235C75.4355 17.945 74.9355 17.8 74.3355 17.8C73.5555 17.8 72.9255 18.07 72.4455 18.61C71.9655 19.14 71.7255 19.895 71.7255 20.875C71.7255 21.865 71.9655 22.63 72.4455 23.17C72.9255 23.71 73.5555 23.98 74.3355 23.98C74.9355 23.98 75.4355 23.84 75.8355 23.56C76.2355 23.28 76.5105 22.88 76.6605 22.36H78.1305C77.9105 23.2 77.4705 23.875 76.8105 24.385C76.1505 24.885 75.3255 25.135 74.3355 25.135C73.5555 25.135 72.8605 24.96 72.2505 24.61C71.6505 24.26 71.1805 23.765 70.8405 23.125C70.5005 22.485 70.3305 21.735 70.3305 20.875ZM83.7318 16.63C84.3518 16.63 84.9118 16.765 85.4118 17.035C85.9118 17.295 86.3018 17.69 86.5818 18.22C86.8718 18.75 87.0168 19.395 87.0168 20.155V25H85.6668V20.35C85.6668 19.53 85.4618 18.905 85.0518 18.475C84.6418 18.035 84.0818 17.815 83.3718 17.815C82.6518 17.815 82.0768 18.04 81.6468 18.49C81.2268 18.94 81.0168 19.595 81.0168 20.455V25H79.6518V13.9H81.0168V17.95C81.2868 17.53 81.6568 17.205 82.1268 16.975C82.6068 16.745 83.1418 16.63 83.7318 16.63ZM98.1505 25L95.6605 20.725H94.0105V25H92.6455V14.545H96.0205C96.8105 14.545 97.4755 14.68 98.0155 14.95C98.5655 15.22 98.9755 15.585 99.2455 16.045C99.5155 16.505 99.6505 17.03 99.6505 17.62C99.6505 18.34 99.4405 18.975 99.0205 19.525C98.6105 20.075 97.9905 20.44 97.1605 20.62L99.7855 25H98.1505ZM94.0105 19.63H96.0205C96.7605 19.63 97.3155 19.45 97.6855 19.09C98.0555 18.72 98.2405 18.23 98.2405 17.62C98.2405 17 98.0555 16.52 97.6855 16.18C97.3255 15.84 96.7705 15.67 96.0205 15.67H94.0105V19.63ZM108.972 20.575C108.972 20.835 108.957 21.11 108.927 21.4H102.357C102.407 22.21 102.682 22.845 103.182 23.305C103.692 23.755 104.307 23.98 105.027 23.98C105.617 23.98 106.107 23.845 106.497 23.575C106.897 23.295 107.177 22.925 107.337 22.465H108.807C108.587 23.255 108.147 23.9 107.487 24.4C106.827 24.89 106.007 25.135 105.027 25.135C104.247 25.135 103.547 24.96 102.927 24.61C102.317 24.26 101.837 23.765 101.487 23.125C101.137 22.475 100.962 21.725 100.962 20.875C100.962 20.025 101.132 19.28 101.472 18.64C101.812 18 102.287 17.51 102.897 17.17C103.517 16.82 104.227 16.645 105.027 16.645C105.807 16.645 106.497 16.815 107.097 17.155C107.697 17.495 108.157 17.965 108.477 18.565C108.807 19.155 108.972 19.825 108.972 20.575ZM107.562 20.29C107.562 19.77 107.447 19.325 107.217 18.955C106.987 18.575 106.672 18.29 106.272 18.1C105.882 17.9 105.447 17.8 104.967 17.8C104.277 17.8 103.687 18.02 103.197 18.46C102.717 18.9 102.442 19.51 102.372 20.29H107.562ZM109.963 20.875C109.963 20.025 110.133 19.285 110.473 18.655C110.813 18.015 111.283 17.52 111.883 17.17C112.493 16.82 113.188 16.645 113.968 16.645C114.978 16.645 115.808 16.89 116.458 17.38C117.118 17.87 117.553 18.55 117.763 19.42H116.293C116.153 18.92 115.878 18.525 115.468 18.235C115.068 17.945 114.568 17.8 113.968 17.8C113.188 17.8 112.558 18.07 112.078 18.61C111.598 19.14 111.358 19.895 111.358 20.875C111.358 21.865 111.598 22.63 112.078 23.17C112.558 23.71 113.188 23.98 113.968 23.98C114.568 23.98 115.068 23.84 115.468 23.56C115.868 23.28 116.143 22.88 116.293 22.36H117.763C117.543 23.2 117.103 23.875 116.443 24.385C115.783 24.885 114.958 25.135 113.968 25.135C113.188 25.135 112.493 24.96 111.883 24.61C111.283 24.26 110.813 23.765 110.473 23.125C110.133 22.485 109.963 21.735 109.963 20.875ZM119.99 15.445C119.73 15.445 119.51 15.355 119.33 15.175C119.15 14.995 119.06 14.775 119.06 14.515C119.06 14.255 119.15 14.035 119.33 13.855C119.51 13.675 119.73 13.585 119.99 13.585C120.24 13.585 120.45 13.675 120.62 13.855C120.8 14.035 120.89 14.255 120.89 14.515C120.89 14.775 120.8 14.995 120.62 15.175C120.45 15.355 120.24 15.445 119.99 15.445ZM120.65 16.78V25H119.285V16.78H120.65ZM124.041 18.295C124.311 17.825 124.711 17.435 125.241 17.125C125.781 16.805 126.406 16.645 127.116 16.645C127.846 16.645 128.506 16.82 129.096 17.17C129.696 17.52 130.166 18.015 130.506 18.655C130.846 19.285 131.016 20.02 131.016 20.86C131.016 21.69 130.846 22.43 130.506 23.08C130.166 23.73 129.696 24.235 129.096 24.595C128.506 24.955 127.846 25.135 127.116 25.135C126.416 25.135 125.796 24.98 125.256 24.67C124.726 24.35 124.321 23.955 124.041 23.485V28.9H122.676V16.78H124.041V18.295ZM129.621 20.86C129.621 20.24 129.496 19.7 129.246 19.24C128.996 18.78 128.656 18.43 128.226 18.19C127.806 17.95 127.341 17.83 126.831 17.83C126.331 17.83 125.866 17.955 125.436 18.205C125.016 18.445 124.676 18.8 124.416 19.27C124.166 19.73 124.041 20.265 124.041 20.875C124.041 21.495 124.166 22.04 124.416 22.51C124.676 22.97 125.016 23.325 125.436 23.575C125.866 23.815 126.331 23.935 126.831 23.935C127.341 23.935 127.806 23.815 128.226 23.575C128.656 23.325 128.996 22.97 129.246 22.51C129.496 22.04 129.621 21.49 129.621 20.86ZM140.013 20.575C140.013 20.835 139.998 21.11 139.968 21.4H133.398C133.448 22.21 133.723 22.845 134.223 23.305C134.733 23.755 135.348 23.98 136.068 23.98C136.658 23.98 137.148 23.845 137.538 23.575C137.938 23.295 138.218 22.925 138.378 22.465H139.848C139.628 23.255 139.188 23.9 138.528 24.4C137.868 24.89 137.048 25.135 136.068 25.135C135.288 25.135 134.588 24.96 133.968 24.61C133.358 24.26 132.878 23.765 132.528 23.125C132.178 22.475 132.003 21.725 132.003 20.875C132.003 20.025 132.173 19.28 132.513 18.64C132.853 18 133.328 17.51 133.938 17.17C134.558 16.82 135.268 16.645 136.068 16.645C136.848 16.645 137.538 16.815 138.138 17.155C138.738 17.495 139.198 17.965 139.518 18.565C139.848 19.155 140.013 19.825 140.013 20.575ZM138.603 20.29C138.603 19.77 138.488 19.325 138.258 18.955C138.028 18.575 137.713 18.29 137.313 18.1C136.923 17.9 136.488 17.8 136.008 17.8C135.318 17.8 134.728 18.02 134.238 18.46C133.758 18.9 133.483 19.51 133.413 20.29H138.603ZM149.294 16.63C149.914 16.63 150.474 16.765 150.974 17.035C151.474 17.295 151.864 17.69 152.144 18.22C152.434 18.75 152.579 19.395 152.579 20.155V25H151.229V20.35C151.229 19.53 151.024 18.905 150.614 18.475C150.204 18.035 149.644 17.815 148.934 17.815C148.214 17.815 147.639 18.04 147.209 18.49C146.789 18.94 146.579 19.595 146.579 20.455V25H145.214V13.9H146.579V17.95C146.849 17.53 147.219 17.205 147.689 16.975C148.169 16.745 148.704 16.63 149.294 16.63ZM162.008 20.575C162.008 20.835 161.993 21.11 161.963 21.4H155.393C155.443 22.21 155.718 22.845 156.218 23.305C156.728 23.755 157.343 23.98 158.063 23.98C158.653 23.98 159.143 23.845 159.533 23.575C159.933 23.295 160.213 22.925 160.373 22.465H161.843C161.623 23.255 161.183 23.9 160.523 24.4C159.863 24.89 159.043 25.135 158.063 25.135C157.283 25.135 156.583 24.96 155.963 24.61C155.353 24.26 154.873 23.765 154.523 23.125C154.173 22.475 153.998 21.725 153.998 20.875C153.998 20.025 154.168 19.28 154.508 18.64C154.848 18 155.323 17.51 155.933 17.17C156.553 16.82 157.263 16.645 158.063 16.645C158.843 16.645 159.533 16.815 160.133 17.155C160.733 17.495 161.193 17.965 161.513 18.565C161.843 19.155 162.008 19.825 162.008 20.575ZM160.598 20.29C160.598 19.77 160.483 19.325 160.253 18.955C160.023 18.575 159.708 18.29 159.308 18.1C158.918 17.9 158.483 17.8 158.003 17.8C157.313 17.8 156.723 18.02 156.233 18.46C155.753 18.9 155.478 19.51 155.408 20.29H160.598ZM164.875 18.115C165.115 17.645 165.455 17.28 165.895 17.02C166.345 16.76 166.89 16.63 167.53 16.63V18.04H167.17C165.64 18.04 164.875 18.87 164.875 20.53V25H163.51V16.78H164.875V18.115ZM176.306 20.575C176.306 20.835 176.291 21.11 176.261 21.4H169.691C169.741 22.21 170.016 22.845 170.516 23.305C171.026 23.755 171.641 23.98 172.361 23.98C172.951 23.98 173.441 23.845 173.831 23.575C174.231 23.295 174.511 22.925 174.671 22.465H176.141C175.921 23.255 175.481 23.9 174.821 24.4C174.161 24.89 173.341 25.135 172.361 25.135C171.581 25.135 170.881 24.96 170.261 24.61C169.651 24.26 169.171 23.765 168.821 23.125C168.471 22.475 168.296 21.725 168.296 20.875C168.296 20.025 168.466 19.28 168.806 18.64C169.146 18 169.621 17.51 170.231 17.17C170.851 16.82 171.561 16.645 172.361 16.645C173.141 16.645 173.831 16.815 174.431 17.155C175.031 17.495 175.491 17.965 175.811 18.565C176.141 19.155 176.306 19.825 176.306 20.575ZM174.896 20.29C174.896 19.77 174.781 19.325 174.551 18.955C174.321 18.575 174.006 18.29 173.606 18.1C173.216 17.9 172.781 17.8 172.301 17.8C171.611 17.8 171.021 18.02 170.531 18.46C170.051 18.9 169.776 19.51 169.706 20.29H174.896Z" fill="#AFAFAF"/>
<g filter="url(#filter0_f_35_1573)">
<rect x="246" y="7" width="30" height="30" rx="8" fill="#BEBEBE" fill-opacity="0.3"/>
</g>
<path d="M17 29L12.7112 24.662M8.25 26.5C5.75 26.5 2 24.625 2 20.25C2 15.875 5.75 14 8.25 14C10.75 14 14.5 15.875 14.5 20.25C14.5 24.625 10.75 26.5 8.25 26.5Z" stroke="#37474F" stroke-width="3" stroke-linecap="round" stroke-linejoin="round"/>
<rect x="246" y="5" width="30" height="30" rx="8" fill="#F7BB0E"/>
<path d="M262 16C262 14.3431 263.343 13 265 13C266.657 13 268 14.3431 268 16C268 17.6569 266.657 19 265 19C263.343 19 262 17.6569 262 16ZM262 16L254 16M260 24C260 25.6569 258.657 27 257 27C255.343 27 254 25.6569 254 24C254 22.3431 255.343 21 257 21C258.657 21 260 22.3431 260 24ZM260 24H268" stroke="white" stroke-linecap="round"/>
<defs>
<filter id="filter0_f_35_1573" x="239" y="0" width="44" height="44" filterUnits="userSpaceOnUse" color-interpolation-filters="sRGB">
<feFlood flood-opacity="0" result="BackgroundImageFix"/>
<feBlend mode="normal" in="SourceGraphic" in2="BackgroundImageFix" result="shape"/>
<feGaussianBlur stdDeviation="3.5" result="effect1_foregroundBlur_35_1573"/>
</filter>
</defs>
</svg>
