
    <svg width="100" height="44" viewBox="0 0 100 44" fill="none" xmlns="http://www.w3.org/2000/svg">
    <path d="M17 29L12.7112 24.662M8.25 26.5C5.75 26.5 2 24.625 2 20.25C2 15.875 5.75 14 8.25 14C10.75 14 14.5 15.875 14.5 20.25C14.5 24.625 10.75 26.5 8.25 26.5Z" stroke="#37474F" stroke-width="3" stroke-linecap="round" stroke-linejoin="round"/>
    <rect x="246" y="5" width="30" height="30" rx="8" fill="#F7BB0E"/>
    <path d="M262 16C262 14.3431 263.343 13 265 13C266.657 13 268 14.3431 268 16C268 17.6569 266.657 19 265 19C263.343 19 262 17.6569 262 16ZM262 16L254 16M260 24C260 25.6569 258.657 27 257 27C255.343 27 254 25.6569 254 24C254 22.3431 255.343 21 257 21C258.657 21 260 22.3431 260 24ZM260 24H268" stroke="white" stroke-linecap="round"/>
    <defs>
        <filter id="filter0_f_35_1573" x="239" y="0" width="44" height="44" filterUnits="userSpaceOnUse" color-interpolation-filters="sRGB">

        </filter>
</defs>
</svg>
